<svg xmlns="http://www.w3.org/2000/svg" viewBox="0 0 64 64" width="64" height="64"><radialGradient id="snlmYLyx7ya_4EufMXRhya" cx="32" cy="32.5" r="31.751" gradientUnits="userSpaceOnUse" spreadMethod="reflect"><stop offset="0" stop-color="#eed7a2"/><stop offset=".106" stop-color="#f1dcab"/><stop offset=".437" stop-color="#f8e8c3"/><stop offset=".744" stop-color="#fcefd2"/><stop offset="1" stop-color="#fef2d7"/></radialGradient><path fill="url(#snlmYLyx7ya_4EufMXRhya)" d="M58,47l-8.302,0c-1.895,0-3.594-1.419-3.693-3.312C45.899,41.67,47.505,40,49.5,40h2.311 c2.086,0,3.958-1.514,4.168-3.59C56.22,34.028,54.335,32,52,32h-1c-1.657,0-3-1.343-3-3v0c0-1.657,1.343-3,3-3h9 c2.335,0,4.22-2.028,3.979-4.41c-0.21-2.075-2.082-3.59-4.168-3.59h-0.704c-0.996,0-1.92-0.681-2.08-1.664 C56.824,15.083,57.785,14,59,14l0.357,0c1.308,0,2.499-0.941,2.63-2.242C62.137,10.261,60.966,9,59.5,9h-15 C43.672,9,43,8.328,43,7.5S43.672,6,44.5,6l3.857,0c1.308,0,2.499-0.941,2.63-2.242C51.137,2.261,49.966,1,48.5,1L13.643,1 c-1.308,0-2.499,0.941-2.63,2.242C10.863,4.739,12.034,6,13.5,6h3.393c0.996,0,1.92,0.681,2.08,1.664C19.176,8.917,18.215,10,17,10 L6.189,10c-2.086,0-3.958,1.514-4.168,3.59C1.78,15.972,3.665,18,6,18h0.302c1.895,0,3.594,1.419,3.693,3.312 C10.101,23.33,8.495,25,6.5,25l-2.311,0c-2.086,0-3.958,1.514-4.168,3.59C-0.22,30.972,1.665,33,4,33h9.923L7,38 c-2.335,0-2.897,9-0.811,9h0.705c0.996,0,1.92,0.681,2.08,1.664C9.176,49.917,8.215,51,7,51H6.643c-1.308,0-2.499,0.941-2.63,2.242 C3.863,54.739,5.034,56,6.5,56h13c0.828,0,1.5,0.672,1.5,1.5S20.328,59,19.5,59l-3.857,0c-1.308,0-2.499,0.941-2.63,2.242 C12.863,62.739,14.034,64,15.5,64L53,64c0-1-0.143-0.941-0.013-2.242C53.137,60.261,51.966,59,50.5,59h-3.393 c-0.996,0-1.92-0.681-2.08-1.664C44.824,56.083,45.785,55,47,55l10.811,0c2.086,0,3.958-1.514,4.168-3.59 C62.22,49.028,60.335,47,58,47z"/><linearGradient id="snlmYLyx7ya_4EufMXRhyb" x1="32" x2="32" y1="53" y2="12" gradientUnits="userSpaceOnUse" spreadMethod="reflect"><stop offset="0" stop-color="#50c2e8"/><stop offset="1" stop-color="#66e1f5"/></linearGradient><path fill="url(#snlmYLyx7ya_4EufMXRhyb)" d="M51.673,30.059C51.879,29.239,52,28.384,52,27.5C52,21.701,47.299,17,41.5,17 c-1.998,0-3.86,0.568-5.45,1.538C33.686,14.625,29.405,12,24.5,12C17.044,12,11,18.044,11,25.5c0,1.304,0.195,2.561,0.54,3.754 C6.093,30.39,2,35.216,2,41c0,6.627,5.373,12,12,12h36v-0.025C50.167,52.982,50.331,53,50.5,53C56.851,53,62,47.851,62,41.5 C62,35.545,57.473,30.647,51.673,30.059z"/><linearGradient id="snlmYLyx7ya_4EufMXRhyc" x1="40.5" x2="40.5" y1="53" y2="23.458" gradientUnits="userSpaceOnUse" spreadMethod="reflect"><stop offset="0" stop-color="#4bbce5"/><stop offset="1" stop-color="#5bd3ef"/></linearGradient><path fill="url(#snlmYLyx7ya_4EufMXRhyc)" d="M62,41.5c0-5.955-4.527-10.853-10.327-11.441c0.166-0.663,0.258-1.354,0.294-2.059H40.5 c-1.381,0-2.5,1.119-2.5,2.5c0,1.381,1.119,2.5,2.5,2.5l0,0c1.381,0,2.5,1.119,2.5,2.5c0,1.381-1.119,2.5-2.5,2.5h-10 c-1.381,0-2.5,1.119-2.5,2.5c0,1.381,1.119,2.5,2.5,2.5h3c1.381,0,2.5,1.119,2.5,2.5c0,1.381-1.119,2.5-2.5,2.5h-12 c-1.381,0-2.5,1.119-2.5,2.5c0,1.381,1.119,2.5,2.5,2.5H50v-0.025C50.167,52.982,50.331,53,50.5,53C56.851,53,62,47.851,62,41.5z"/><linearGradient id="snlmYLyx7ya_4EufMXRhyd" x1="15.844" x2="15.844" y1="35.853" y2="10.835" gradientUnits="userSpaceOnUse" spreadMethod="reflect"><stop offset="0" stop-color="#61d6f0"/><stop offset="1" stop-color="#76e4f6"/></linearGradient><path fill="url(#snlmYLyx7ya_4EufMXRhyd)" d="M2.688,37H18.5c1.381,0,2.5-1.119,2.5-2.5c0-1.381-1.119-2.5-2.5-2.5h-1 c-1.381,0-2.5-1.119-2.5-2.5c0-1.381,1.119-2.5,2.5-2.5h9c1.381,0,2.5-1.119,2.5-2.5c0-1.381-1.119-2.5-2.5-2.5h-4 c-1.381,0-2.5-1.119-2.5-2.5c0-1.381,1.119-2.5,2.5-2.5h1c1.381,0,2.5-1.119,2.5-2.5c0-1.266-0.945-2.302-2.166-2.466 C16.69,12.383,11,18.269,11,25.5c0,1.304,0.195,2.561,0.54,3.754C7.415,30.114,4.07,33.093,2.688,37z"/><linearGradient id="snlmYLyx7ya_4EufMXRhye" x1="52" x2="52" y1="64" y2="27.834" gradientUnits="userSpaceOnUse" spreadMethod="reflect"><stop offset="0" stop-color="#31995f"/><stop offset=".093" stop-color="#329e62"/><stop offset=".666" stop-color="#39ba71"/><stop offset="1" stop-color="#3bc477"/></linearGradient><path fill="url(#snlmYLyx7ya_4EufMXRhye)" d="M52 40A12 12 0 1 0 52 64A12 12 0 1 0 52 40Z"/><path fill="#fff" d="M60,48.998c0,0.51-0.2,1.02-0.58,1.41l-5.59,5.59l-1.416,1.416c-0.781,0.781-2.047,0.781-2.828,0 l-1.416-1.416l-2.59-2.59c-0.38-0.39-0.58-0.9-0.58-1.41c0-0.52,0.2-1.03,0.58-1.42c0.78-0.77,2.05-0.77,2.83,0l2.59,2.59l5.59-5.59 c0.78-0.77,2.05-0.77,2.83,0C59.8,47.968,60,48.478,60,48.998z"/></svg>